<?xml version="1.0" standalone="no"?><!DOCTYPE svg PUBLIC "-//W3C//DTD SVG 1.1//EN" "http://www.w3.org/Graphics/SVG/1.1/DTD/svg11.dtd"><svg t="1589860799990" class="icon" viewBox="0 0 1024 1024" version="1.1" xmlns="http://www.w3.org/2000/svg" p-id="4039" xmlns:xlink="http://www.w3.org/1999/xlink" width="128" height="128"><defs><style type="text/css"></style></defs><path d="M378.8 479.8m-36.2 0a36.2 36.2 0 1 0 72.4 0 36.2 36.2 0 1 0-72.4 0Z" p-id="4040"></path><path d="M647.2 479.9m-35.5 0a35.5 35.5 0 1 0 71 0 35.5 35.5 0 1 0-71 0Z" p-id="4041"></path><path d="M585.5 618.3c-0.9 0.9-21.7 21.7-72.4 21.7-49.7 0-70.7-20-72.3-21.6-11.7-12.8-31.5-14-44.6-2.5-13.3 11.6-14.6 31.8-3 45.1 3.8 4.4 39.8 42.8 119.9 42.8 80.1 0 116-38.5 119.9-42.8 11.4-13.1 10-32.5-2.7-44.2-12.7-11.7-32.7-10.9-44.8 1.5z" p-id="4042"></path><path d="M646.9 479.9m-36.2 0a36.2 36.2 0 1 0 72.4 0 36.2 36.2 0 1 0-72.4 0Z" p-id="4043"></path><path d="M886 418.8c-41.5-167.4-192.8-291.6-373.1-291.6S181.3 251.3 139.8 418.8c-42.4 9.6-74 47.5-74 92.8s31.6 83.2 74 92.8C181.3 771.9 332.6 896 512.9 896S844.4 771.9 886 604.5c42.5-9.5 74.3-47.5 74.3-92.9-0.1-45.3-31.8-83.3-74.3-92.8z m10.2 93.7c0 17.6-14.4 32-32 32h-32.9c-1.8 17.8-5.1 35.1-9.7 51.9 0.1 0.1 0.2 0.1 0.3 0.2-3.7 13.5-8.3 26.8-13.8 39.8-16.1 38.1-39.2 72.4-68.7 101.9-29.4 29.4-63.7 52.6-101.9 68.7-39.5 16.7-81.4 25.2-124.7 25.2s-85.2-8.5-124.7-25.2c-38.1-16.1-72.4-39.2-101.9-68.7-29.4-29.4-52.6-63.7-68.7-101.9-5.5-13-10.1-26.2-13.8-39.7 0.2-0.1 0.3-0.2 0.5-0.3-4.6-16.8-7.9-34.1-9.7-51.9h-33.7c-17.6 0-32-14.4-32-32 0-17.1 13.5-31.1 30.4-32h35.1c1.8-18.4 5.1-36.3 9.8-53.6-0.1-0.1-0.2-0.1-0.4-0.2 3.7-13.5 8.3-26.8 13.8-39.7 16.1-38.1 39.2-72.4 68.7-101.9 21.8-21.8 46.2-40.1 72.9-54.7 13.3 56.9 55.2 116.3 99.1 136.9 52.7 26.2 82.6 22.8 94.6 21.1 12-1.7 22.1-26.3 22.1-26.3 17.6-45.4 40.6-51.6 50.9-55.8 10.3-4.1 14.9-9.3 14.9-9.3 0.1-0.2 0.3-0.5 0.4-0.7 6-5.6 9.8-13.6 9.8-22.4 0-16.4-13-29.8-29.2-30.5 0 0-3.3-0.3-6.6 0.2-64.8 12.4-93.2 79.6-93.2 79.6-82.3-19.4-100.4-103.8-102.9-118 30.2-9.3 61.7-13.9 93.9-13.9h3c1.7 0 3.5 0 5.2 0.1 1.3 0 2.5 0.1 3.8 0.1 1.5 0.1 3 0.1 4.4 0.2 0.9 0 1.9 0.1 2.8 0.2l5.4 0.3c0.5 0 1 0.1 1.6 0.1l6.6 0.6h0.4c31.6 3.2 62.2 11.1 91.5 23.5 38.1 16.1 72.4 39.2 101.9 68.7 29.4 29.4 52.6 63.7 68.7 101.9 5.5 13 10.1 26.3 13.8 39.8-0.1 0-0.1 0.1-0.2 0.1 4.7 17.3 8 35.2 9.8 53.6h33.5c17.2 0 31.2 14 31.2 31.2v0.4c-0.1 0.1-0.1 0.2-0.1 0.4z" p-id="4044"></path></svg>